# xmcd CD database file
#
# Track frame offsets:
#	150
#	47577
#	77607
#	98402
#	135953
#	171821
#	217034
#	234295
#
# Disc length: 3652 seconds
#
# Revision: 0
# Processed by: cddbd v1.5.2PL0 Copyright (c) Steve Scherf et al.
# Submitted via: CDex 1.70beta2
#
DISCID=560e4208
DTITLE=Julie Lamontagne - Now What
DYEAR=2009
DGENRE=Jazz
TTITLE0=Désillusionnée
TTITLE1=Lost in the cycle
TTITLE2=Doux carrousel
TTITLE3=Plan C
TTITLE4=Lovely lies
TTITLE5=Now what
TTITLE6=K.O.
TTITLE7=Damn
EXTD=YEAR: 2009
EXTT0=
EXTT1=
EXTT2=
EXTT3=
EXTT4=
EXTT5=
EXTT6=
EXTT7=
PLAYORDER=
